<svg width="112" height="66" viewBox="0 0 112 66" fill="none" xmlns="http://www.w3.org/2000/svg">
<path d="M6.5 0.96C7.98 0.96 9.27333 1.25333 10.38 1.84C11.4867 2.42667 12.34 3.25333 12.94 4.32C13.5533 5.37333 13.86 6.59333 13.86 7.98C13.86 9.35333 13.5533 10.5733 12.94 11.64C12.34 12.7067 11.48 13.5333 10.36 14.12C9.25333 14.7067 7.96667 15 6.5 15H1.24V0.96H6.5ZM6.28 12.04C7.57333 12.04 8.58 11.6867 9.3 10.98C10.02 10.2733 10.38 9.27333 10.38 7.98C10.38 6.68667 10.02 5.68 9.3 4.96C8.58 4.24 7.57333 3.88 6.28 3.88H4.66V12.04H6.28ZM20.1913 0.96V15H16.7713V0.96H20.1913ZM28.7497 15.14C27.723 15.14 26.803 14.9733 25.9897 14.64C25.1764 14.3067 24.523 13.8133 24.0297 13.16C23.5497 12.5067 23.2964 11.72 23.2697 10.8H26.9097C26.963 11.32 27.143 11.72 27.4497 12C27.7564 12.2667 28.1564 12.4 28.6497 12.4C29.1564 12.4 29.5564 12.2867 29.8497 12.06C30.143 11.82 30.2897 11.4933 30.2897 11.08C30.2897 10.7333 30.1697 10.4467 29.9297 10.22C29.703 9.99333 29.4164 9.80667 29.0697 9.66C28.7364 9.51333 28.2564 9.34667 27.6297 9.16C26.723 8.88 25.983 8.6 25.4097 8.32C24.8364 8.04 24.343 7.62667 23.9297 7.08C23.5164 6.53333 23.3097 5.82 23.3097 4.94C23.3097 3.63333 23.783 2.61333 24.7297 1.88C25.6764 1.13333 26.9097 0.76 28.4297 0.76C29.9764 0.76 31.223 1.13333 32.1697 1.88C33.1164 2.61333 33.623 3.64 33.6897 4.96H29.9897C29.963 4.50667 29.7964 4.15333 29.4897 3.9C29.183 3.63333 28.7897 3.5 28.3097 3.5C27.8964 3.5 27.563 3.61333 27.3097 3.84C27.0564 4.05333 26.9297 4.36667 26.9297 4.78C26.9297 5.23333 27.143 5.58667 27.5697 5.84C27.9964 6.09333 28.663 6.36667 29.5697 6.66C30.4764 6.96667 31.2097 7.26 31.7697 7.54C32.343 7.82 32.8364 8.22667 33.2497 8.76C33.663 9.29333 33.8697 9.98 33.8697 10.82C33.8697 11.62 33.663 12.3467 33.2497 13C32.8497 13.6533 32.263 14.1733 31.4897 14.56C30.7164 14.9467 29.803 15.14 28.7497 15.14ZM36.3944 7.96C36.3944 6.57333 36.6944 5.34 37.2944 4.26C37.8944 3.16667 38.7277 2.32 39.7944 1.72C40.8744 1.10667 42.0944 0.799999 43.4544 0.799999C45.121 0.799999 46.5477 1.24 47.7344 2.12C48.921 3 49.7144 4.2 50.1144 5.72H46.3544C46.0744 5.13333 45.6744 4.68667 45.1544 4.38C44.6477 4.07333 44.0677 3.92 43.4144 3.92C42.361 3.92 41.5077 4.28667 40.8544 5.02C40.201 5.75333 39.8744 6.73333 39.8744 7.96C39.8744 9.18667 40.201 10.1667 40.8544 10.9C41.5077 11.6333 42.361 12 43.4144 12C44.0677 12 44.6477 11.8467 45.1544 11.54C45.6744 11.2333 46.0744 10.7867 46.3544 10.2H50.1144C49.7144 11.72 48.921 12.92 47.7344 13.8C46.5477 14.6667 45.121 15.1 43.4544 15.1C42.0944 15.1 40.8744 14.8 39.7944 14.2C38.7277 13.5867 37.8944 12.74 37.2944 11.66C36.6944 10.58 36.3944 9.34667 36.3944 7.96ZM59.8488 15.14C58.5288 15.14 57.3154 14.8333 56.2088 14.22C55.1154 13.6067 54.2421 12.7533 53.5888 11.66C52.9487 10.5533 52.6287 9.31333 52.6287 7.94C52.6287 6.56667 52.9487 5.33333 53.5888 4.24C54.2421 3.14667 55.1154 2.29333 56.2088 1.68C57.3154 1.06667 58.5288 0.76 59.8488 0.76C61.1688 0.76 62.3754 1.06667 63.4688 1.68C64.5754 2.29333 65.4421 3.14667 66.0688 4.24C66.7088 5.33333 67.0288 6.56667 67.0288 7.94C67.0288 9.31333 66.7088 10.5533 66.0688 11.66C65.4288 12.7533 64.5621 13.6067 63.4688 14.22C62.3754 14.8333 61.1688 15.14 59.8488 15.14ZM59.8488 12.02C60.9688 12.02 61.8621 11.6467 62.5287 10.9C63.2088 10.1533 63.5488 9.16667 63.5488 7.94C63.5488 6.7 63.2088 5.71333 62.5287 4.98C61.8621 4.23333 60.9688 3.86 59.8488 3.86C58.7154 3.86 57.8088 4.22667 57.1288 4.96C56.4621 5.69333 56.1288 6.68667 56.1288 7.94C56.1288 9.18 56.4621 10.1733 57.1288 10.92C57.8088 11.6533 58.7154 12.02 59.8488 12.02ZM73.2914 0.96V9.36C73.2914 10.2 73.4981 10.8467 73.9114 11.3C74.3247 11.7533 74.9314 11.98 75.7314 11.98C76.5314 11.98 77.1447 11.7533 77.5714 11.3C77.9981 10.8467 78.2114 10.2 78.2114 9.36V0.96H81.6314V9.34C81.6314 10.5933 81.3647 11.6533 80.8314 12.52C80.2981 13.3867 79.5781 14.04 78.6714 14.48C77.7781 14.92 76.7781 15.14 75.6714 15.14C74.5647 15.14 73.5714 14.9267 72.6914 14.5C71.8247 14.06 71.1381 13.4067 70.6314 12.54C70.1247 11.66 69.8714 10.5933 69.8714 9.34V0.96H73.2914ZM97.593 15H94.173L88.453 6.34V15H85.033V0.96H88.453L94.173 9.66V0.96H97.593V15ZM111.172 0.96V3.7H107.452V15H104.032V3.7H100.312V0.96H111.172ZM0.78 37.26C1.23333 36.9 1.44 36.7333 1.4 36.76C2.70667 35.68 3.73333 34.7933 4.48 34.1C5.24 33.4067 5.88 32.68 6.4 31.92C6.92 31.16 7.18 30.42 7.18 29.7C7.18 29.1533 7.05333 28.7267 6.8 28.42C6.54667 28.1133 6.16667 27.96 5.66 27.96C5.15333 27.96 4.75333 28.1533 4.46 28.54C4.18 28.9133 4.04 29.4467 4.04 30.14H0.74C0.766667 29.0067 1.00667 28.06 1.46 27.3C1.92667 26.54 2.53333 25.98 3.28 25.62C4.04 25.26 4.88 25.08 5.8 25.08C7.38667 25.08 8.58 25.4867 9.38 26.3C10.1933 27.1133 10.6 28.1733 10.6 29.48C10.6 30.9067 10.1133 32.2333 9.14 33.46C8.16667 34.6733 6.92667 35.86 5.42 37.02H10.82V39.8H0.78V37.26ZM23.6058 28.38H17.3658V31.14C17.6324 30.8467 18.0058 30.6067 18.4858 30.42C18.9658 30.2333 19.4858 30.14 20.0458 30.14C21.0458 30.14 21.8724 30.3667 22.5258 30.82C23.1924 31.2733 23.6791 31.86 23.9858 32.58C24.2924 33.3 24.4458 34.08 24.4458 34.92C24.4458 36.48 24.0058 37.72 23.1258 38.64C22.2458 39.5467 21.0058 40 19.4058 40C18.3391 40 17.4124 39.82 16.6258 39.46C15.8391 39.0867 15.2324 38.5733 14.8058 37.92C14.3791 37.2667 14.1458 36.5133 14.1058 35.66H17.4458C17.5258 36.0733 17.7191 36.42 18.0258 36.7C18.3324 36.9667 18.7524 37.1 19.2858 37.1C19.9124 37.1 20.3791 36.9 20.6858 36.5C20.9924 36.1 21.1458 35.5667 21.1458 34.9C21.1458 34.2467 20.9858 33.7467 20.6658 33.4C20.3458 33.0533 19.8791 32.88 19.2658 32.88C18.8124 32.88 18.4391 32.9933 18.1458 33.22C17.8524 33.4333 17.6591 33.72 17.5658 34.08H14.2658V25.38H23.6058V28.38ZM27.0536 29.08C27.0536 28 27.3603 27.1667 27.9736 26.58C28.6003 25.9933 29.4069 25.7 30.3936 25.7C31.3803 25.7 32.1803 25.9933 32.7936 26.58C33.4069 27.1667 33.7136 28 33.7136 29.08C33.7136 30.16 33.4069 30.9933 32.7936 31.58C32.1803 32.1667 31.3803 32.46 30.3936 32.46C29.4069 32.46 28.6003 32.1667 27.9736 31.58C27.3603 30.9933 27.0536 30.16 27.0536 29.08ZM40.6336 25.92L32.9336 40H29.6336L37.3336 25.92H40.6336ZM30.3736 27.7C29.7336 27.7 29.4136 28.16 29.4136 29.08C29.4136 29.9867 29.7336 30.44 30.3736 30.44C30.6803 30.44 30.9203 30.3267 31.0936 30.1C31.2669 29.8733 31.3536 29.5333 31.3536 29.08C31.3536 28.16 31.0269 27.7 30.3736 27.7ZM36.5736 36.84C36.5736 35.76 36.8803 34.9267 37.4936 34.34C38.1069 33.7533 38.9069 33.46 39.8936 33.46C40.8803 33.46 41.6803 33.7533 42.2936 34.34C42.9069 34.9267 43.2136 35.76 43.2136 36.84C43.2136 37.92 42.9069 38.7533 42.2936 39.34C41.6803 39.9267 40.8803 40.22 39.8936 40.22C38.9069 40.22 38.1069 39.9267 37.4936 39.34C36.8803 38.7533 36.5736 37.92 36.5736 36.84ZM39.8736 35.46C39.5669 35.46 39.3269 35.5733 39.1536 35.8C38.9936 36.0267 38.9136 36.3733 38.9136 36.84C38.9136 37.7467 39.2336 38.2 39.8736 38.2C40.1803 38.2 40.4203 38.0867 40.5936 37.86C40.7669 37.6333 40.8536 37.2933 40.8536 36.84C40.8536 36.3867 40.7669 36.0467 40.5936 35.82C40.4203 35.58 40.1803 35.46 39.8736 35.46ZM60.0542 37.52H54.8142L53.9742 40H50.3942L55.4742 25.96H59.4342L64.5142 40H60.8942L60.0542 37.52ZM59.1742 34.88L57.4342 29.74L55.7142 34.88H59.1742ZM70.4803 37.36H74.9603V40H67.0603V25.96H70.4803V37.36ZM81.0116 37.36H85.4916V40H77.5916V25.96H81.0116V37.36ZM10.38 50.96V53.7H4.66V56.66H8.94V59.32H4.66V65H1.24V50.96H10.38ZM20.3375 65L17.4175 59.7H16.5975V65H13.1775V50.96H18.9175C20.0242 50.96 20.9642 51.1533 21.7375 51.54C22.5242 51.9267 23.1108 52.46 23.4975 53.14C23.8842 53.8067 24.0775 54.5533 24.0775 55.38C24.0775 56.3133 23.8108 57.1467 23.2775 57.88C22.7575 58.6133 21.9842 59.1333 20.9575 59.44L24.1975 65H20.3375ZM16.5975 57.28H18.7175C19.3442 57.28 19.8108 57.1267 20.1175 56.82C20.4375 56.5133 20.5975 56.08 20.5975 55.52C20.5975 54.9867 20.4375 54.5667 20.1175 54.26C19.8108 53.9533 19.3442 53.8 18.7175 53.8H16.5975V57.28ZM30.5844 50.96V59.36C30.5844 60.2 30.791 60.8467 31.2044 61.3C31.6177 61.7533 32.2244 61.98 33.0244 61.98C33.8244 61.98 34.4377 61.7533 34.8644 61.3C35.291 60.8467 35.5044 60.2 35.5044 59.36V50.96H38.9244V59.34C38.9244 60.5933 38.6577 61.6533 38.1244 62.52C37.591 63.3867 36.871 64.04 35.9644 64.48C35.071 64.92 34.071 65.14 32.9644 65.14C31.8577 65.14 30.8644 64.9267 29.9844 64.5C29.1177 64.06 28.431 63.4067 27.9244 62.54C27.4177 61.66 27.1644 60.5933 27.1644 59.34V50.96H30.5844ZM45.7459 50.96V65H42.3259V50.96H45.7459ZM59.3244 50.96V53.7H55.6044V65H52.1844V53.7H48.4644V50.96H59.3244ZM67.1208 65.14C66.0941 65.14 65.1741 64.9733 64.3608 64.64C63.5474 64.3067 62.8941 63.8133 62.4008 63.16C61.9208 62.5067 61.6674 61.72 61.6408 60.8H65.2808C65.3341 61.32 65.5141 61.72 65.8208 62C66.1274 62.2667 66.5274 62.4 67.0208 62.4C67.5274 62.4 67.9274 62.2867 68.2208 62.06C68.5141 61.82 68.6608 61.4933 68.6608 61.08C68.6608 60.7333 68.5408 60.4467 68.3008 60.22C68.0741 59.9933 67.7874 59.8067 67.4408 59.66C67.1074 59.5133 66.6274 59.3467 66.0008 59.16C65.0941 58.88 64.3541 58.6 63.7808 58.32C63.2074 58.04 62.7141 57.6267 62.3008 57.08C61.8874 56.5333 61.6808 55.82 61.6808 54.94C61.6808 53.6333 62.1541 52.6133 63.1008 51.88C64.0474 51.1333 65.2808 50.76 66.8008 50.76C68.3474 50.76 69.5941 51.1333 70.5408 51.88C71.4874 52.6133 71.9941 53.64 72.0608 54.96H68.3608C68.3341 54.5067 68.1674 54.1533 67.8608 53.9C67.5541 53.6333 67.1608 53.5 66.6808 53.5C66.2674 53.5 65.9341 53.6133 65.6808 53.84C65.4274 54.0533 65.3008 54.3667 65.3008 54.78C65.3008 55.2333 65.5141 55.5867 65.9408 55.84C66.3674 56.0933 67.0341 56.3667 67.9408 56.66C68.8474 56.9667 69.5808 57.26 70.1408 57.54C70.7141 57.82 71.2074 58.2267 71.6208 58.76C72.0341 59.2933 72.2408 59.98 72.2408 60.82C72.2408 61.62 72.0341 62.3467 71.6208 63C71.2208 63.6533 70.6341 64.1733 69.8608 64.56C69.0874 64.9467 68.1741 65.14 67.1208 65.14Z" fill="white"/>
</svg>
