<svg width="35" height="45" viewBox="0 0 35 45" fill="none" xmlns="http://www.w3.org/2000/svg">
<path d="M21.0493 8.53516H32.2212V42.0508C32.2212 42.5066 32.0401 42.9438 31.7178 43.2661C31.3955 43.5885 30.9583 43.7695 30.5024 43.7695H22.7681C22.3122 43.7695 21.8751 43.5885 21.5527 43.2661C21.2304 42.9438 21.0493 42.5066 21.0493 42.0508V8.53516Z" fill="#FFC32E"/>
<path d="M25.3462 38.6133C25.3462 39.0691 25.5273 39.5063 25.8496 39.8286C26.1719 40.151 26.6091 40.332 27.0649 40.332H32.2212V8.53516H25.3462V38.6133Z" fill="#FFD473"/>
<path d="M32.2212 13.6914H21.0493V37.7539H32.2212V13.6914Z" fill="#F6921E"/>
<path d="M32.2212 13.6914H25.3462V37.7539H32.2212V13.6914Z" fill="#F99B3E"/>
<path d="M32.2212 1.23047H21.0493C20.1001 1.23047 19.3306 1.99998 19.3306 2.94922V6.81641C19.3306 7.76565 20.1001 8.53516 21.0493 8.53516H32.2212C33.1704 8.53516 33.9399 7.76565 33.9399 6.81641V2.94922C33.9399 1.99998 33.1704 1.23047 32.2212 1.23047Z" fill="#D6EBF2"/>
<path d="M32.2212 23.282V42.0508C32.2212 42.5066 32.0401 42.9438 31.7178 43.2661C31.3955 43.5885 30.9583 43.7695 30.5024 43.7695H22.7681C22.3122 43.7695 21.8751 43.5885 21.5527 43.2661C21.2304 42.9438 21.0493 42.5066 21.0493 42.0508V8.53516H32.2212V18.6328" stroke="black" stroke-linecap="round" stroke-linejoin="round"/>
<path d="M32.2212 37.7539H21.0493V13.6914H32.2212" stroke="black" stroke-linecap="round" stroke-linejoin="round"/>
<path d="M19.3306 4.23828V6.81641C19.3306 7.27225 19.5116 7.70942 19.834 8.03175C20.1563 8.35407 20.5935 8.53516 21.0493 8.53516H32.2212C32.677 8.53516 33.1142 8.35407 33.4365 8.03175C33.7589 7.70942 33.9399 7.27225 33.9399 6.81641V4.23828H19.3306Z" fill="#BDD5DB"/>
<path d="M32.2212 1.23047H21.0493C20.1001 1.23047 19.3306 1.99998 19.3306 2.94922V6.81641C19.3306 7.76565 20.1001 8.53516 21.0493 8.53516H32.2212C33.1704 8.53516 33.9399 7.76565 33.9399 6.81641V2.94922C33.9399 1.99998 33.1704 1.23047 32.2212 1.23047Z" stroke="black" stroke-linecap="round" stroke-linejoin="round"/>
<path d="M21.6851 20.5664H19.9663V17.9883H4.49756V20.5664H2.77881C2.32297 20.5664 1.8858 20.7475 1.56347 21.0698C1.24114 21.3921 1.06006 21.8293 1.06006 22.2852V40.332C1.06006 41.2437 1.42222 42.1181 2.06688 42.7627C2.71154 43.4074 3.58588 43.7695 4.49756 43.7695H19.9663C20.878 43.7695 21.7523 43.4074 22.397 42.7627C23.0416 42.1181 23.4038 41.2437 23.4038 40.332V22.2852C23.4038 21.8293 23.2227 21.3921 22.9004 21.0698C22.5781 20.7475 22.1409 20.5664 21.6851 20.5664Z" fill="#B6D99E"/>
<path d="M21.6938 20.5664H19.9751V17.9883H7.29932V37.4875C7.29932 38.4698 7.68955 39.4119 8.38417 40.1066C9.07878 40.8012 10.0209 41.1914 11.0032 41.1914H23.2923C23.2923 41.0883 23.3438 40.9766 23.361 40.8648C23.392 40.6888 23.4093 40.5107 23.4126 40.332V22.2852C23.4126 21.8293 23.2315 21.3921 22.9092 21.0698C22.5869 20.7475 22.1497 20.5664 21.6938 20.5664Z" fill="#C8E8AF"/>
<path d="M23.4038 36.7227C23.4038 36.7227 18.5741 36.8945 11.6991 36.8945C4.82412 36.8945 1.06006 36.7227 1.06006 36.7227V25.7227C1.06006 25.7227 5.6835 25.8945 11.6991 25.8945C17.7147 25.8945 23.4038 25.7227 23.4038 25.7227V36.7227Z" fill="#29D177"/>
<path d="M7.29932 25.8602V36.8688C8.58265 36.8688 10.0522 36.8688 11.7079 36.8688C18.5829 36.8688 23.4126 36.6969 23.4126 36.6969V25.7227C23.4126 25.7227 17.7235 25.8945 11.7079 25.8945C10.1181 25.8945 8.63135 25.8773 7.29932 25.8602Z" fill="#94D363"/>
<path d="M19.9663 10.2539H4.49756C3.54832 10.2539 2.77881 11.0234 2.77881 11.9727V16.2695C2.77881 17.2188 3.54832 17.9883 4.49756 17.9883H19.9663C20.9155 17.9883 21.6851 17.2188 21.6851 16.2695V11.9727C21.6851 11.0234 20.9155 10.2539 19.9663 10.2539Z" fill="#D6EBF2"/>
<path d="M21.6851 20.5664H19.9663V17.9883H4.49756V20.5664H2.77881C2.32297 20.5664 1.8858 20.7475 1.56347 21.0698C1.24114 21.3921 1.06006 21.8293 1.06006 22.2852V40.332C1.06006 41.2437 1.42222 42.1181 2.06688 42.7627C2.71154 43.4074 3.58588 43.7695 4.49756 43.7695H19.9663C20.878 43.7695 21.7523 43.4074 22.397 42.7627C23.0416 42.1181 23.4038 41.2437 23.4038 40.332V22.2852C23.4038 21.8293 23.2227 21.3921 22.9004 21.0698C22.5781 20.7475 22.1409 20.5664 21.6851 20.5664Z" stroke="black" stroke-linecap="round" stroke-linejoin="round"/>
<path d="M23.4038 36.7227C23.4038 36.7227 18.5741 36.8945 11.6991 36.8945C4.82412 36.8945 1.06006 36.7227 1.06006 36.7227V25.7227C1.06006 25.7227 5.6835 25.8945 11.6991 25.8945C17.7147 25.8945 23.4038 25.7227 23.4038 25.7227V36.7227Z" stroke="black" stroke-linecap="round" stroke-linejoin="round"/>
<path d="M15.0337 30.0711H13.4782V28.5156H10.9946V30.0711H9.44775V32.5461H10.9946V34.1016H13.4782V32.5461H15.0337V30.0711Z" fill="white"/>
<path d="M15.0337 30.0711H13.4782V28.5156H10.9946V30.0711H9.44775V32.5461H10.9946V34.1016H13.4782V32.5461H15.0337V30.0711Z" stroke="black" stroke-linecap="round" stroke-linejoin="round"/>
<path d="M2.7876 13.6914V16.2695C2.7876 16.7254 2.96868 17.1625 3.29101 17.4849C3.61334 17.8072 4.05051 17.9883 4.50635 17.9883H19.9751C20.4309 17.9883 20.8681 17.8072 21.1904 17.4849C21.5128 17.1625 21.6938 16.7254 21.6938 16.2695V13.6914H2.7876Z" fill="#BDD5DB"/>
<path d="M19.9663 10.2539H4.49756C3.54832 10.2539 2.77881 11.0234 2.77881 11.9727V16.2695C2.77881 17.2188 3.54832 17.9883 4.49756 17.9883H19.9663C20.9155 17.9883 21.6851 17.2188 21.6851 16.2695V11.9727C21.6851 11.0234 20.9155 10.2539 19.9663 10.2539Z" stroke="black" stroke-linecap="round" stroke-linejoin="round"/>
</svg>
