<svg width="218" height="57" viewBox="0 0 218 57" fill="none" xmlns="http://www.w3.org/2000/svg">
<path d="M0.77 10.3C0.77 8.78933 1.10733 7.44 1.782 6.252C2.47133 5.04933 3.40267 4.118 4.576 3.458C5.764 2.78333 7.09133 2.446 8.558 2.446C10.274 2.446 11.7773 2.886 13.068 3.766C14.3587 4.646 15.2607 5.86333 15.774 7.418H12.232C11.88 6.68467 11.3813 6.13467 10.736 5.768C10.1053 5.40133 9.372 5.218 8.536 5.218C7.64133 5.218 6.842 5.43067 6.138 5.856C5.44867 6.26667 4.906 6.85333 4.51 7.616C4.12867 8.37867 3.938 9.27333 3.938 10.3C3.938 11.312 4.12867 12.2067 4.51 12.984C4.906 13.7467 5.44867 14.3407 6.138 14.766C6.842 15.1767 7.64133 15.382 8.536 15.382C9.372 15.382 10.1053 15.1987 10.736 14.832C11.3813 14.4507 11.88 13.8933 12.232 13.16H15.774C15.2607 14.7293 14.3587 15.954 13.068 16.834C11.792 17.6993 10.2887 18.132 8.558 18.132C7.09133 18.132 5.764 17.802 4.576 17.142C3.40267 16.4673 2.47133 15.536 1.782 14.348C1.10733 13.16 0.77 11.8107 0.77 10.3ZM29.9107 5.812V18H26.8087V16.46C26.4127 16.988 25.8921 17.406 25.2467 17.714C24.6161 18.0073 23.9267 18.154 23.1787 18.154C22.2254 18.154 21.3821 17.956 20.6487 17.56C19.9154 17.1493 19.3361 16.5553 18.9107 15.778C18.5001 14.986 18.2947 14.0473 18.2947 12.962V5.812H21.3747V12.522C21.3747 13.49 21.6167 14.238 22.1007 14.766C22.5847 15.2793 23.2447 15.536 24.0807 15.536C24.9314 15.536 25.5987 15.2793 26.0827 14.766C26.5667 14.238 26.8087 13.49 26.8087 12.522V5.812H29.9107ZM37.6136 18.198C36.6163 18.198 35.7216 18.022 34.9296 17.67C34.1376 17.3033 33.507 16.812 33.0376 16.196C32.583 15.58 32.3336 14.898 32.2896 14.15H35.3916C35.4503 14.6193 35.6776 15.008 36.0736 15.316C36.4843 15.624 36.9903 15.778 37.5916 15.778C38.1783 15.778 38.633 15.6607 38.9556 15.426C39.293 15.1913 39.4616 14.8907 39.4616 14.524C39.4616 14.128 39.2563 13.8347 38.8456 13.644C38.4496 13.4387 37.8116 13.2187 36.9316 12.984C36.0223 12.764 35.2743 12.5367 34.6876 12.302C34.1156 12.0673 33.617 11.708 33.1916 11.224C32.781 10.74 32.5756 10.0873 32.5756 9.266C32.5756 8.59133 32.7663 7.97533 33.1476 7.418C33.5436 6.86067 34.101 6.42067 34.8196 6.098C35.553 5.77533 36.411 5.614 37.3936 5.614C38.8456 5.614 40.0043 5.98067 40.8696 6.714C41.735 7.43267 42.2116 8.408 42.2996 9.64H39.3516C39.3076 9.156 39.1023 8.77467 38.7356 8.496C38.3836 8.20267 37.907 8.056 37.3056 8.056C36.7483 8.056 36.3156 8.15867 36.0076 8.364C35.7143 8.56933 35.5676 8.85533 35.5676 9.222C35.5676 9.63267 35.773 9.948 36.1836 10.168C36.5943 10.3733 37.2323 10.586 38.0976 10.806C38.9776 11.026 39.7036 11.2533 40.2756 11.488C40.8476 11.7227 41.339 12.0893 41.7496 12.588C42.175 13.072 42.395 13.7173 42.4096 14.524C42.4096 15.228 42.2116 15.8587 41.8156 16.416C41.4343 16.9733 40.877 17.4133 40.1436 17.736C39.425 18.044 38.5816 18.198 37.6136 18.198ZM48.5239 8.342V14.238C48.5239 14.6487 48.6193 14.9493 48.8099 15.14C49.0153 15.316 49.3526 15.404 49.8219 15.404H51.2519V18H49.3159C46.7199 18 45.4219 16.7387 45.4219 14.216V8.342H43.9699V5.812H45.4219V2.798H48.5239V5.812H51.2519V8.342H48.5239ZM58.8792 18.198C57.7059 18.198 56.6499 17.9413 55.7112 17.428C54.7726 16.9 54.0319 16.1593 53.4892 15.206C52.9612 14.2527 52.6972 13.1527 52.6972 11.906C52.6972 10.6593 52.9686 9.55933 53.5112 8.606C54.0686 7.65267 54.8239 6.91933 55.7772 6.406C56.7306 5.878 57.7939 5.614 58.9672 5.614C60.1406 5.614 61.2039 5.878 62.1572 6.406C63.1106 6.91933 63.8586 7.65267 64.4012 8.606C64.9586 9.55933 65.2372 10.6593 65.2372 11.906C65.2372 13.1527 64.9512 14.2527 64.3792 15.206C63.8219 16.1593 63.0592 16.9 62.0912 17.428C61.1379 17.9413 60.0672 18.198 58.8792 18.198ZM58.8792 15.514C59.4366 15.514 59.9572 15.382 60.4412 15.118C60.9399 14.8393 61.3359 14.4287 61.6292 13.886C61.9226 13.3433 62.0692 12.6833 62.0692 11.906C62.0692 10.7473 61.7612 9.86 61.1452 9.244C60.5439 8.61333 59.8032 8.298 58.9232 8.298C58.0432 8.298 57.3026 8.61333 56.7012 9.244C56.1146 9.86 55.8212 10.7473 55.8212 11.906C55.8212 13.0647 56.1072 13.9593 56.6792 14.59C57.2659 15.206 57.9992 15.514 58.8792 15.514ZM82.6325 5.636C84.1285 5.636 85.3312 6.098 86.2405 7.022C87.1645 7.93133 87.6265 9.20733 87.6265 10.85V18H84.5465V11.268C84.5465 10.3147 84.3045 9.58867 83.8205 9.09C83.3365 8.57667 82.6765 8.32 81.8405 8.32C81.0045 8.32 80.3372 8.57667 79.8385 9.09C79.3545 9.58867 79.1125 10.3147 79.1125 11.268V18H76.0325V11.268C76.0325 10.3147 75.7905 9.58867 75.3065 9.09C74.8225 8.57667 74.1625 8.32 73.3265 8.32C72.4758 8.32 71.8012 8.57667 71.3025 9.09C70.8185 9.58867 70.5765 10.3147 70.5765 11.268V18H67.4965V5.812H70.5765V7.286C70.9725 6.77267 71.4785 6.36933 72.0945 6.076C72.7252 5.78267 73.4145 5.636 74.1625 5.636C75.1158 5.636 75.9665 5.84133 76.7145 6.252C77.4625 6.648 78.0418 7.22 78.4525 7.968C78.8485 7.264 79.4205 6.69933 80.1685 6.274C80.9312 5.84867 81.7525 5.636 82.6325 5.636ZM101.879 11.642C101.879 12.082 101.85 12.478 101.791 12.83H92.8813C92.9546 13.71 93.2626 14.3993 93.8053 14.898C94.3479 15.3967 95.0153 15.646 95.8073 15.646C96.9513 15.646 97.7653 15.1547 98.2493 14.172H101.571C101.219 15.3453 100.545 16.3133 99.5473 17.076C98.5499 17.824 97.3253 18.198 95.8733 18.198C94.6999 18.198 93.6439 17.9413 92.7053 17.428C91.7813 16.9 91.0553 16.1593 90.5273 15.206C90.0139 14.2527 89.7572 13.1527 89.7572 11.906C89.7572 10.6447 90.0139 9.53733 90.5273 8.584C91.0406 7.63067 91.7593 6.89733 92.6833 6.384C93.6073 5.87067 94.6706 5.614 95.8733 5.614C97.0319 5.614 98.0659 5.86333 98.9753 6.362C99.8993 6.86067 100.611 7.572 101.109 8.496C101.623 9.40533 101.879 10.454 101.879 11.642ZM98.6893 10.762C98.6746 9.97 98.3886 9.33933 97.8313 8.87C97.2739 8.386 96.5919 8.144 95.7853 8.144C95.0226 8.144 94.3773 8.37867 93.8493 8.848C93.3359 9.30267 93.0206 9.94067 92.9033 10.762H98.6893ZM107.207 7.704C107.603 7.05867 108.117 6.55267 108.747 6.186C109.393 5.81933 110.126 5.636 110.947 5.636V8.87H110.133C109.165 8.87 108.432 9.09733 107.933 9.552C107.449 10.0067 107.207 10.7987 107.207 11.928V18H104.127V5.812H107.207V7.704ZM123.852 8.342H121.718V18H118.594V8.342H117.208V5.812H118.594V5.196C118.594 3.7 119.019 2.6 119.87 1.896C120.721 1.192 122.004 0.861999 123.72 0.906V3.502C122.972 3.48733 122.451 3.612 122.158 3.876C121.865 4.14 121.718 4.61667 121.718 5.306V5.812H123.852V8.342ZM125.056 11.862C125.056 10.63 125.298 9.53733 125.782 8.584C126.281 7.63067 126.948 6.89733 127.784 6.384C128.635 5.87067 129.581 5.614 130.622 5.614C131.531 5.614 132.323 5.79733 132.998 6.164C133.687 6.53067 134.237 6.99267 134.648 7.55V5.812H137.75V18H134.648V16.218C134.252 16.79 133.702 17.2667 132.998 17.648C132.309 18.0147 131.509 18.198 130.6 18.198C129.573 18.198 128.635 17.934 127.784 17.406C126.948 16.878 126.281 16.1373 125.782 15.184C125.298 14.216 125.056 13.1087 125.056 11.862ZM134.648 11.906C134.648 11.158 134.501 10.52 134.208 9.992C133.915 9.44933 133.519 9.03867 133.02 8.76C132.521 8.46667 131.986 8.32 131.414 8.32C130.842 8.32 130.314 8.45933 129.83 8.738C129.346 9.01667 128.95 9.42733 128.642 9.97C128.349 10.498 128.202 11.1287 128.202 11.862C128.202 12.5953 128.349 13.2407 128.642 13.798C128.95 14.3407 129.346 14.7587 129.83 15.052C130.329 15.3453 130.857 15.492 131.414 15.492C131.986 15.492 132.521 15.3527 133.02 15.074C133.519 14.7807 133.915 14.37 134.208 13.842C134.501 13.2993 134.648 12.654 134.648 11.906ZM145.84 15.162L148.92 5.812H152.198L147.688 18H143.948L139.46 5.812H142.76L145.84 15.162ZM159.34 18.198C158.167 18.198 157.111 17.9413 156.172 17.428C155.233 16.9 154.493 16.1593 153.95 15.206C153.422 14.2527 153.158 13.1527 153.158 11.906C153.158 10.6593 153.429 9.55933 153.972 8.606C154.529 7.65267 155.285 6.91933 156.238 6.406C157.191 5.878 158.255 5.614 159.428 5.614C160.601 5.614 161.665 5.878 162.618 6.406C163.571 6.91933 164.319 7.65267 164.862 8.606C165.419 9.55933 165.698 10.6593 165.698 11.906C165.698 13.1527 165.412 14.2527 164.84 15.206C164.283 16.1593 163.52 16.9 162.552 17.428C161.599 17.9413 160.528 18.198 159.34 18.198ZM159.34 15.514C159.897 15.514 160.418 15.382 160.902 15.118C161.401 14.8393 161.797 14.4287 162.09 13.886C162.383 13.3433 162.53 12.6833 162.53 11.906C162.53 10.7473 162.222 9.86 161.606 9.244C161.005 8.61333 160.264 8.298 159.384 8.298C158.504 8.298 157.763 8.61333 157.162 9.244C156.575 9.86 156.282 10.7473 156.282 11.906C156.282 13.0647 156.568 13.9593 157.14 14.59C157.727 15.206 158.46 15.514 159.34 15.514ZM179.463 5.812V18H176.361V16.46C175.965 16.988 175.445 17.406 174.799 17.714C174.169 18.0073 173.479 18.154 172.731 18.154C171.778 18.154 170.935 17.956 170.201 17.56C169.468 17.1493 168.889 16.5553 168.463 15.778C168.053 14.986 167.847 14.0473 167.847 12.962V5.812H170.927V12.522C170.927 13.49 171.169 14.238 171.653 14.766C172.137 15.2793 172.797 15.536 173.633 15.536C174.484 15.536 175.151 15.2793 175.635 14.766C176.119 14.238 176.361 13.49 176.361 12.522V5.812H179.463ZM185.582 7.704C185.978 7.05867 186.492 6.55267 187.122 6.186C187.768 5.81933 188.501 5.636 189.322 5.636V8.87H188.508C187.54 8.87 186.807 9.09733 186.308 9.552C185.824 10.0067 185.582 10.7987 185.582 11.928V18H182.502V5.812H185.582V7.704ZM192.959 4.36C192.416 4.36 191.962 4.19133 191.595 3.854C191.243 3.502 191.067 3.06933 191.067 2.556C191.067 2.04267 191.243 1.61733 191.595 1.28C191.962 0.927999 192.416 0.751999 192.959 0.751999C193.502 0.751999 193.949 0.927999 194.301 1.28C194.668 1.61733 194.851 2.04267 194.851 2.556C194.851 3.06933 194.668 3.502 194.301 3.854C193.949 4.19133 193.502 4.36 192.959 4.36ZM194.477 5.812V18H191.397V5.812H194.477ZM201.106 8.342V14.238C201.106 14.6487 201.201 14.9493 201.392 15.14C201.597 15.316 201.935 15.404 202.404 15.404H203.834V18H201.898C199.302 18 198.004 16.7387 198.004 14.216V8.342H196.552V5.812H198.004V2.798H201.106V5.812H203.834V8.342H201.106ZM217.379 11.642C217.379 12.082 217.35 12.478 217.291 12.83H208.381C208.455 13.71 208.763 14.3993 209.305 14.898C209.848 15.3967 210.515 15.646 211.307 15.646C212.451 15.646 213.265 15.1547 213.749 14.172H217.071C216.719 15.3453 216.045 16.3133 215.047 17.076C214.05 17.824 212.825 18.198 211.373 18.198C210.2 18.198 209.144 17.9413 208.205 17.428C207.281 16.9 206.555 16.1593 206.027 15.206C205.514 14.2527 205.257 13.1527 205.257 11.906C205.257 10.6447 205.514 9.53733 206.027 8.584C206.541 7.63067 207.259 6.89733 208.183 6.384C209.107 5.87067 210.171 5.614 211.373 5.614C212.532 5.614 213.566 5.86333 214.475 6.362C215.399 6.86067 216.111 7.572 216.609 8.496C217.123 9.40533 217.379 10.454 217.379 11.642ZM214.189 10.762C214.175 9.97 213.889 9.33933 213.331 8.87C212.774 8.386 212.092 8.144 211.285 8.144C210.523 8.144 209.877 8.37867 209.349 8.848C208.836 9.30267 208.521 9.94067 208.403 10.762H214.189ZM5.104 41.342V47.238C5.104 47.6487 5.19933 47.9493 5.39 48.14C5.59533 48.316 5.93267 48.404 6.402 48.404H7.832V51H5.896C3.3 51 2.002 49.7387 2.002 47.216V41.342H0.55V38.812H2.002V35.798H5.104V38.812H7.832V41.342H5.104ZM15.4593 51.198C14.286 51.198 13.23 50.9413 12.2913 50.428C11.3526 49.9 10.612 49.1593 10.0693 48.206C9.5413 47.2527 9.2773 46.1527 9.2773 44.906C9.2773 43.6593 9.54863 42.5593 10.0913 41.606C10.6486 40.6527 11.404 39.9193 12.3573 39.406C13.3106 38.878 14.374 38.614 15.5473 38.614C16.7206 38.614 17.784 38.878 18.7373 39.406C19.6906 39.9193 20.4386 40.6527 20.9813 41.606C21.5386 42.5593 21.8173 43.6593 21.8173 44.906C21.8173 46.1527 21.5313 47.2527 20.9593 48.206C20.402 49.1593 19.6393 49.9 18.6713 50.428C17.718 50.9413 16.6473 51.198 15.4593 51.198ZM15.4593 48.514C16.0166 48.514 16.5373 48.382 17.0213 48.118C17.52 47.8393 17.916 47.4287 18.2093 46.886C18.5026 46.3433 18.6493 45.6833 18.6493 44.906C18.6493 43.7473 18.3413 42.86 17.7253 42.244C17.124 41.6133 16.3833 41.298 15.5033 41.298C14.6233 41.298 13.8826 41.6133 13.2813 42.244C12.6946 42.86 12.4013 43.7473 12.4013 44.906C12.4013 46.0647 12.6873 46.9593 13.2593 47.59C13.846 48.206 14.5793 48.514 15.4593 48.514ZM27.1566 40.572C27.5526 40.0147 28.0953 39.5527 28.7846 39.186C29.4886 38.8047 30.2879 38.614 31.1826 38.614C32.2239 38.614 33.1626 38.8707 33.9986 39.384C34.8493 39.8973 35.5166 40.6307 36.0006 41.584C36.4993 42.5227 36.7486 43.6153 36.7486 44.862C36.7486 46.1087 36.4993 47.216 36.0006 48.184C35.5166 49.1373 34.8493 49.878 33.9986 50.406C33.1626 50.934 32.2239 51.198 31.1826 51.198C30.2879 51.198 29.4959 51.0147 28.8066 50.648C28.1319 50.2813 27.5819 49.8193 27.1566 49.262V56.808H24.0766V38.812H27.1566V40.572ZM33.6026 44.862C33.6026 44.1287 33.4486 43.498 33.1406 42.97C32.8473 42.4273 32.4513 42.0167 31.9526 41.738C31.4686 41.4593 30.9406 41.32 30.3686 41.32C29.8113 41.32 29.2833 41.4667 28.7846 41.76C28.3006 42.0387 27.9046 42.4493 27.5966 42.992C27.3033 43.5347 27.1566 44.1727 27.1566 44.906C27.1566 45.6393 27.3033 46.2773 27.5966 46.82C27.9046 47.3627 28.3006 47.7807 28.7846 48.074C29.2833 48.3527 29.8113 48.492 30.3686 48.492C30.9406 48.492 31.4686 48.3453 31.9526 48.052C32.4513 47.7587 32.8473 47.3407 33.1406 46.798C33.4486 46.2553 33.6026 45.61 33.6026 44.862ZM48.8929 51.198C47.8956 51.198 47.0009 51.022 46.2089 50.67C45.4169 50.3033 44.7863 49.812 44.3169 49.196C43.8623 48.58 43.6129 47.898 43.5689 47.15H46.6709C46.7296 47.6193 46.9569 48.008 47.3529 48.316C47.7636 48.624 48.2696 48.778 48.8709 48.778C49.4576 48.778 49.9123 48.6607 50.2349 48.426C50.5723 48.1913 50.7409 47.8907 50.7409 47.524C50.7409 47.128 50.5356 46.8347 50.1249 46.644C49.7289 46.4387 49.0909 46.2187 48.2109 45.984C47.3016 45.764 46.5536 45.5367 45.9669 45.302C45.3949 45.0673 44.8963 44.708 44.4709 44.224C44.0603 43.74 43.8549 43.0873 43.8549 42.266C43.8549 41.5913 44.0456 40.9753 44.4269 40.418C44.8229 39.8607 45.3803 39.4207 46.0989 39.098C46.8323 38.7753 47.6903 38.614 48.6729 38.614C50.1249 38.614 51.2836 38.9807 52.1489 39.714C53.0143 40.4327 53.4909 41.408 53.5789 42.64H50.6309C50.5869 42.156 50.3816 41.7747 50.0149 41.496C49.6629 41.2027 49.1863 41.056 48.5849 41.056C48.0276 41.056 47.5949 41.1587 47.2869 41.364C46.9936 41.5693 46.8469 41.8553 46.8469 42.222C46.8469 42.6327 47.0523 42.948 47.4629 43.168C47.8736 43.3733 48.5116 43.586 49.3769 43.806C50.2569 44.026 50.9829 44.2533 51.5549 44.488C52.1269 44.7227 52.6183 45.0893 53.0289 45.588C53.4543 46.072 53.6743 46.7173 53.6889 47.524C53.6889 48.228 53.4909 48.8587 53.0949 49.416C52.7136 49.9733 52.1563 50.4133 51.4229 50.736C50.7043 51.044 49.8609 51.198 48.8929 51.198ZM67.7232 38.812V51H64.6212V49.46C64.2252 49.988 63.7046 50.406 63.0592 50.714C62.4286 51.0073 61.7392 51.154 60.9912 51.154C60.0379 51.154 59.1946 50.956 58.4612 50.56C57.7279 50.1493 57.1486 49.5553 56.7232 48.778C56.3126 47.986 56.1072 47.0473 56.1072 45.962V38.812H59.1872V45.522C59.1872 46.49 59.4292 47.238 59.9132 47.766C60.3972 48.2793 61.0572 48.536 61.8932 48.536C62.7439 48.536 63.4112 48.2793 63.8952 47.766C64.3792 47.238 64.6212 46.49 64.6212 45.522V38.812H67.7232ZM73.8421 40.572C74.2381 40.0147 74.7808 39.5527 75.4701 39.186C76.1741 38.8047 76.9735 38.614 77.8681 38.614C78.9095 38.614 79.8481 38.8707 80.6841 39.384C81.5348 39.8973 82.2021 40.6307 82.6861 41.584C83.1848 42.5227 83.4341 43.6153 83.4341 44.862C83.4341 46.1087 83.1848 47.216 82.6861 48.184C82.2021 49.1373 81.5348 49.878 80.6841 50.406C79.8481 50.934 78.9095 51.198 77.8681 51.198C76.9735 51.198 76.1815 51.0147 75.4921 50.648C74.8175 50.2813 74.2675 49.8193 73.8421 49.262V56.808H70.7621V38.812H73.8421V40.572ZM80.2881 44.862C80.2881 44.1287 80.1341 43.498 79.8261 42.97C79.5328 42.4273 79.1368 42.0167 78.6381 41.738C78.1541 41.4593 77.6261 41.32 77.0541 41.32C76.4968 41.32 75.9688 41.4667 75.4701 41.76C74.9861 42.0387 74.5901 42.4493 74.2821 42.992C73.9888 43.5347 73.8421 44.1727 73.8421 44.906C73.8421 45.6393 73.9888 46.2773 74.2821 46.82C74.5901 47.3627 74.9861 47.7807 75.4701 48.074C75.9688 48.3527 76.4968 48.492 77.0541 48.492C77.6261 48.492 78.1541 48.3453 78.6381 48.052C79.1368 47.7587 79.5328 47.3407 79.8261 46.798C80.1341 46.2553 80.2881 45.61 80.2881 44.862ZM97.0023 44.642C97.0023 45.082 96.973 45.478 96.9143 45.83H88.0043C88.0776 46.71 88.3856 47.3993 88.9283 47.898C89.471 48.3967 90.1383 48.646 90.9303 48.646C92.0743 48.646 92.8883 48.1547 93.3723 47.172H96.6943C96.3423 48.3453 95.6676 49.3133 94.6703 50.076C93.673 50.824 92.4483 51.198 90.9963 51.198C89.823 51.198 88.767 50.9413 87.8283 50.428C86.9043 49.9 86.1783 49.1593 85.6503 48.206C85.137 47.2527 84.8803 46.1527 84.8803 44.906C84.8803 43.6447 85.137 42.5373 85.6503 41.584C86.1636 40.6307 86.8823 39.8973 87.8063 39.384C88.7303 38.8707 89.7936 38.614 90.9963 38.614C92.155 38.614 93.189 38.8633 94.0983 39.362C95.0223 39.8607 95.7336 40.572 96.2323 41.496C96.7456 42.4053 97.0023 43.454 97.0023 44.642ZM93.8123 43.762C93.7976 42.97 93.5116 42.3393 92.9543 41.87C92.397 41.386 91.715 41.144 90.9083 41.144C90.1456 41.144 89.5003 41.3787 88.9723 41.848C88.459 42.3027 88.1436 42.9407 88.0263 43.762H93.8123ZM102.33 40.704C102.726 40.0587 103.24 39.5527 103.87 39.186C104.516 38.8193 105.249 38.636 106.07 38.636V41.87H105.256C104.288 41.87 103.555 42.0973 103.056 42.552C102.572 43.0067 102.33 43.7987 102.33 44.928V51H99.2504V38.812H102.33V40.704ZM123.281 38.636C124.777 38.636 125.98 39.098 126.889 40.022C127.813 40.9313 128.275 42.2073 128.275 43.85V51H125.195V44.268C125.195 43.3147 124.953 42.5887 124.469 42.09C123.985 41.5767 123.325 41.32 122.489 41.32C121.653 41.32 120.986 41.5767 120.487 42.09C120.003 42.5887 119.761 43.3147 119.761 44.268V51H116.681V44.268C116.681 43.3147 116.439 42.5887 115.955 42.09C115.471 41.5767 114.811 41.32 113.975 41.32C113.124 41.32 112.45 41.5767 111.951 42.09C111.467 42.5887 111.225 43.3147 111.225 44.268V51H108.145V38.812H111.225V40.286C111.621 39.7727 112.127 39.3693 112.743 39.076C113.374 38.7827 114.063 38.636 114.811 38.636C115.764 38.636 116.615 38.8413 117.363 39.252C118.111 39.648 118.69 40.22 119.101 40.968C119.497 40.264 120.069 39.6993 120.817 39.274C121.58 38.8487 122.401 38.636 123.281 38.636ZM130.406 44.862C130.406 43.63 130.648 42.5373 131.132 41.584C131.63 40.6307 132.298 39.8973 133.134 39.384C133.984 38.8707 134.93 38.614 135.972 38.614C136.881 38.614 137.673 38.7973 138.348 39.164C139.037 39.5307 139.587 39.9927 139.998 40.55V38.812H143.1V51H139.998V49.218C139.602 49.79 139.052 50.2667 138.348 50.648C137.658 51.0147 136.859 51.198 135.95 51.198C134.923 51.198 133.984 50.934 133.134 50.406C132.298 49.878 131.63 49.1373 131.132 48.184C130.648 47.216 130.406 46.1087 130.406 44.862ZM139.998 44.906C139.998 44.158 139.851 43.52 139.558 42.992C139.264 42.4493 138.868 42.0387 138.37 41.76C137.871 41.4667 137.336 41.32 136.764 41.32C136.192 41.32 135.664 41.4593 135.18 41.738C134.696 42.0167 134.3 42.4273 133.992 42.97C133.698 43.498 133.552 44.1287 133.552 44.862C133.552 45.5953 133.698 46.2407 133.992 46.798C134.3 47.3407 134.696 47.7587 135.18 48.052C135.678 48.3453 136.206 48.492 136.764 48.492C137.336 48.492 137.871 48.3527 138.37 48.074C138.868 47.7807 139.264 47.37 139.558 46.842C139.851 46.2993 139.998 45.654 139.998 44.906ZM149.188 40.704C149.584 40.0587 150.097 39.5527 150.728 39.186C151.373 38.8193 152.107 38.636 152.928 38.636V41.87H152.114C151.146 41.87 150.413 42.0973 149.914 42.552C149.43 43.0067 149.188 43.7987 149.188 44.928V51H146.108V38.812H149.188V40.704ZM162.218 51L158.082 45.808V51H155.002V34.72H158.082V43.982L162.174 38.812H166.178L160.81 44.928L166.222 51H162.218ZM179.18 44.642C179.18 45.082 179.151 45.478 179.092 45.83H170.182C170.255 46.71 170.563 47.3993 171.106 47.898C171.649 48.3967 172.316 48.646 173.108 48.646C174.252 48.646 175.066 48.1547 175.55 47.172H178.872C178.52 48.3453 177.845 49.3133 176.848 50.076C175.851 50.824 174.626 51.198 173.174 51.198C172.001 51.198 170.945 50.9413 170.006 50.428C169.082 49.9 168.356 49.1593 167.828 48.206C167.315 47.2527 167.058 46.1527 167.058 44.906C167.058 43.6447 167.315 42.5373 167.828 41.584C168.341 40.6307 169.06 39.8973 169.984 39.384C170.908 38.8707 171.971 38.614 173.174 38.614C174.333 38.614 175.367 38.8633 176.276 39.362C177.2 39.8607 177.911 40.572 178.41 41.496C178.923 42.4053 179.18 43.454 179.18 44.642ZM175.99 43.762C175.975 42.97 175.689 42.3393 175.132 41.87C174.575 41.386 173.893 41.144 173.086 41.144C172.323 41.144 171.678 41.3787 171.15 41.848C170.637 42.3027 170.321 42.9407 170.204 43.762H175.99ZM185.014 41.342V47.238C185.014 47.6487 185.109 47.9493 185.3 48.14C185.505 48.316 185.843 48.404 186.312 48.404H187.742V51H185.806C183.21 51 181.912 49.7387 181.912 47.216V41.342H180.46V38.812H181.912V35.798H185.014V38.812H187.742V41.342H185.014ZM194.621 51.198C193.624 51.198 192.729 51.022 191.937 50.67C191.145 50.3033 190.515 49.812 190.045 49.196C189.591 48.58 189.341 47.898 189.297 47.15H192.399C192.458 47.6193 192.685 48.008 193.081 48.316C193.492 48.624 193.998 48.778 194.599 48.778C195.186 48.778 195.641 48.6607 195.963 48.426C196.301 48.1913 196.469 47.8907 196.469 47.524C196.469 47.128 196.264 46.8347 195.853 46.644C195.457 46.4387 194.819 46.2187 193.939 45.984C193.03 45.764 192.282 45.5367 191.695 45.302C191.123 45.0673 190.625 44.708 190.199 44.224C189.789 43.74 189.583 43.0873 189.583 42.266C189.583 41.5913 189.774 40.9753 190.155 40.418C190.551 39.8607 191.109 39.4207 191.827 39.098C192.561 38.7753 193.419 38.614 194.401 38.614C195.853 38.614 197.012 38.9807 197.877 39.714C198.743 40.4327 199.219 41.408 199.307 42.64H196.359C196.315 42.156 196.11 41.7747 195.743 41.496C195.391 41.2027 194.915 41.056 194.313 41.056C193.756 41.056 193.323 41.1587 193.015 41.364C192.722 41.5693 192.575 41.8553 192.575 42.222C192.575 42.6327 192.781 42.948 193.191 43.168C193.602 43.3733 194.24 43.586 195.105 43.806C195.985 44.026 196.711 44.2533 197.283 44.488C197.855 44.7227 198.347 45.0893 198.757 45.588C199.183 46.072 199.403 46.7173 199.417 47.524C199.417 48.228 199.219 48.8587 198.823 49.416C198.442 49.9733 197.885 50.4133 197.151 50.736C196.433 51.044 195.589 51.198 194.621 51.198Z" fill="#F2F2F2"/>
</svg>
